<?xml version="1.0" encoding="utf-8"?>
<!-- Generator: Adobe Illustrator 26.1.0, SVG Export Plug-In . SVG Version: 6.00 Build 0)  -->
<svg version="1.1" id="Layer_1" xmlns="http://www.w3.org/2000/svg" xmlns:xlink="http://www.w3.org/1999/xlink" x="0px" y="0px"
	 viewBox="0 0 425.3 68.4" style="enable-background:new 0 0 425.3 68.4;" xml:space="preserve">
<style type="text/css">
	.st0{fill:#D62503;}
</style>
<g>
	<g>
		<g transform="translate(37.982035, 202.648359)">
			<g>
				<path class="st0" d="M0.2-185.9c0,5.7-4,9.1-12,10v0.1h0.1c4.6,0.4,8.1,1.5,10.4,3.5c2.3,1.9,3.4,4.5,3.4,7.7
					c0,2.3-0.6,4.3-1.8,6.1c-1.2,1.8-2.9,3.2-5.2,4.2c-2.2,1-4.9,1.5-7.9,1.5h-17.6v-1.2c1.5,0,2.6-0.3,3.2-1
					c0.6-0.7,0.9-1.8,0.9-3.5v-32.8c0-1.6-0.3-2.7-0.9-3.3c-0.6-0.6-1.7-1-3.2-1v-1.2h14.7c4.8,0,8.7,0.9,11.7,2.7
					C-1.3-192.1,0.2-189.5,0.2-185.9z M-16.2-176.8c2.3,0,4.1-0.7,5.3-2c1.2-1.3,1.8-3.5,1.8-6.7c0-3.2-0.6-5.5-1.8-6.8
					c-1.2-1.3-3.2-2-6-2h-0.6v17.5H-16.2z M-14.6-155.2c2.2,0,3.8-0.8,5-2.4c1.1-1.6,1.7-3.9,1.7-6.8c0-6.7-2.9-10-8.8-10h-0.9v15.2
					c0,1.6,0.2,2.7,0.7,3.2C-16.4-155.4-15.7-155.2-14.6-155.2z"/>
			</g>
		</g>
	</g>
	<g>
		<g transform="translate(61.843904, 202.648359)">
			<g>
				<path class="st0" d="M-6.1-183.2c1,0,1.8,0.4,2.4,1.3c0.6,0.8,0.9,1.9,0.9,3.2c0,1.2-0.3,2.3-0.9,3c-0.6,0.8-1.3,1.1-2.3,1.1
					c-0.5,0-0.9-0.1-1.3-0.3c-0.3-0.2-0.7-0.5-1.1-1c-0.3-0.3-0.6-0.6-0.9-0.7c-0.2-0.2-0.5-0.2-0.9-0.2c-0.6,0-1.1,0.6-1.4,1.7
					c-0.3,1.1-0.5,3.5-0.5,7.2v10.4c0,1.2,0.1,2,0.2,2.5c0.2,0.5,0.4,0.8,0.8,0.9c0.4,0.1,1.1,0.2,2.1,0.2v1.2h-13.7v-1.2
					c0.9,0,1.5-0.1,1.8-0.2c0.3-0.1,0.6-0.4,0.7-0.9c0.1-0.5,0.2-1.2,0.2-2.3v-20.4c0-1.1-0.1-1.9-0.2-2.4c-0.1-0.4-0.4-0.7-0.7-0.9
					c-0.3-0.1-1-0.2-1.8-0.3v-1.2H-12v5.3h0.1c0.7-1.9,1.5-3.4,2.5-4.5C-8.3-182.7-7.2-183.2-6.1-183.2z"/>
			</g>
		</g>
	</g>
	<g>
		<g transform="translate(76.160801, 202.648359)">
			<g>
				<path class="st0" d="M-5.2-183.2c3.2,0,5.8,1.3,7.6,4c1.9,2.7,2.8,6,2.8,10v0.5H-8.8c0.1,3.6,0.8,6.5,2.1,8.7
					c1.3,2.2,3,3.3,5.1,3.3c1.2,0,2.3-0.4,3.2-1.2c0.9-0.8,1.8-2.1,2.6-3.7l1,0.6c-0.8,2.9-2.1,5.2-4,6.7c-1.9,1.6-4.1,2.3-6.6,2.3
					c-2.2,0-4.2-0.7-6-2c-1.8-1.3-3.1-3.1-4.1-5.5c-1-2.3-1.5-5-1.5-7.9c0-3,0.5-5.6,1.6-8.1c1.1-2.4,2.5-4.3,4.3-5.7
					C-9.4-182.5-7.4-183.2-5.2-183.2z M-2.3-172.1c0-3.1-0.2-5.4-0.6-6.8c-0.4-1.4-1.2-2.2-2.4-2.2c-1.2,0-2.1,0.8-2.7,2.3
					c-0.6,1.5-0.9,4.2-0.9,8h6.7V-172.1z"/>
			</g>
		</g>
	</g>
	<g>
		<g transform="translate(92.984456, 202.648359)">
			<g>
				<path class="st0" d="M1.5-183.2c3.1,0,5.4,0.7,7,2c1.6,1.3,2.4,3.4,2.4,6.1v16.6c0,1.7,0.4,2.5,1.2,2.5c0.5,0,1-0.5,1.5-1.5
					l0.8,0.8c-0.7,1.5-1.6,2.6-2.7,3.4c-1.1,0.8-2.3,1.2-3.6,1.2c-1.3,0-2.5-0.4-3.4-1.2c-0.9-0.8-1.5-2-1.7-3.4
					c-1.8,1.6-3.4,2.8-4.8,3.5c-1.4,0.7-2.6,1.1-3.9,1.1c-1.7,0-3.1-0.6-4.1-1.8c-1.1-1.2-1.6-2.7-1.6-4.5c0-1.9,0.8-3.7,2.3-5.5
					c1.5-1.8,4.2-3.6,7.9-5.4l4.2-2.1v-6c0-2.6-1.3-3.9-3.9-3.9c-1.2,0-2.1,0.3-2.9,0.9c-0.8,0.6-1.1,1.2-1.1,2
					c0,0.4,0.1,0.8,0.2,1.1c0.2,0.3,0.4,0.6,0.7,1c0.3,0.4,0.6,0.7,0.8,1.1c0.2,0.3,0.3,0.7,0.3,1.2c0,0.9-0.4,1.7-1.1,2.3
					c-0.7,0.6-1.6,0.9-2.8,0.9c-1.2,0-2.2-0.4-3-1.1c-0.8-0.7-1.2-1.6-1.2-2.7c0-1.5,0.6-3,1.7-4.3c1.1-1.3,2.6-2.4,4.6-3.2
					C-2.8-182.8-0.8-183.2,1.5-183.2z M-3.4-161c0,1,0.3,1.9,0.8,2.5c0.6,0.7,1.3,1,2.1,1c1.1,0,2.2-0.6,3.5-1.7v-10
					c-2,1.3-3.6,2.5-4.8,3.8C-2.8-164.2-3.4-162.7-3.4-161z"/>
			</g>
		</g>
	</g>
	<g>
		<g transform="translate(112.314876, 202.648359)">
			<g>
				<path class="st0" d="M5.1-167.8h0.1l5.7-8.4c0.6-0.9,1.1-1.6,1.4-2.1c0.3-0.5,0.4-1,0.4-1.4c0-0.5-0.2-0.8-0.6-1.1
					c-0.4-0.3-0.9-0.4-1.7-0.4v-1.2h9.5v1.2c-1.7,0.3-3.2,1.1-4.5,2.5c-1.3,1.3-2.3,2.6-3.1,3.9c-0.8,1.2-1.2,2-1.4,2.3l6,12.5
					c1.1,2.3,1.9,3.8,2.5,4.7c0.6,0.8,1.3,1.3,2.2,1.5v1.2H9.8v-1.2c0.9,0,1.4-0.2,1.4-0.7c0-0.5-0.2-1.2-0.6-2.1
					c-0.4-0.9-0.7-1.4-0.8-1.5l-3.9-7.9L5.1-165v7.6c0,1,0.1,1.8,0.2,2.2c0.1,0.5,0.3,0.8,0.7,0.9c0.3,0.1,0.8,0.2,1.5,0.2v1.2H-4.7
					v-1.2c0.8-0.1,1.3-0.3,1.6-0.7c0.2-0.4,0.4-1.3,0.4-2.6v-34.8c0-1-0.1-1.7-0.2-2.1c-0.1-0.4-0.3-0.7-0.5-0.9
					c-0.2-0.2-0.7-0.3-1.2-0.4v-1.2h9.8V-167.8z"/>
			</g>
		</g>
	</g>
	<g>
		<g transform="translate(131.645297, 202.648359)">
			<g>
				<path class="st0" d="M7.9-197.5c1.2,0,2.2,0.4,3,1.3c0.8,0.8,1.3,1.8,1.3,3c0,1.2-0.4,2.2-1.3,3.1c-0.8,0.8-1.8,1.2-3,1.2
					c-1.2,0-2.2-0.4-3.1-1.2C4-191,3.5-192,3.5-193.2c0-1.2,0.4-2.2,1.3-3C5.6-197.1,6.7-197.5,7.9-197.5z M11.8-157.4
					c0,1.1,0.1,1.9,0.2,2.4c0.2,0.5,0.4,0.8,0.7,0.8c0.3,0.1,0.9,0.1,1.7,0.2v1.2H1.1v-1.2c0.9,0,1.5-0.1,1.9-0.2
					c0.4-0.1,0.6-0.4,0.8-0.9c0.2-0.5,0.2-1.3,0.2-2.4v-19.6c0-1.8-0.2-2.9-0.6-3.4c-0.4-0.5-1.2-0.8-2.3-0.8v-1.2h10.7V-157.4z"/>
			</g>
		</g>
	</g>
	<g>
		<g transform="translate(141.430747, 202.648359)">
			<g>
				<path class="st0" d="M22.2-183.2c2.3,0,4,0.8,5,2.5c1,1.7,1.5,3.8,1.5,6.4v17c0,1.4,0.1,2.3,0.3,2.6c0.2,0.4,0.7,0.6,1.4,0.7
					v1.2H19.2v-1.2c0.7-0.1,1.2-0.4,1.4-0.8c0.2-0.4,0.4-1.2,0.4-2.6v-16.5c0-2.1-0.2-3.5-0.6-4.2c-0.4-0.7-1-1-1.6-1
					c-0.6,0-1.3,0.2-2,0.8c-0.7,0.5-1.5,1.3-2.5,2.6v18.3c0,1.4,0.1,2.3,0.3,2.7c0.2,0.4,0.7,0.6,1.4,0.7v1.2H4.6v-1.2
					c0.7,0,1.2-0.3,1.4-0.7c0.3-0.4,0.4-1.3,0.4-2.7v-20.3c0-1.5-0.1-2.5-0.4-3c-0.2-0.5-0.7-0.7-1.4-0.7v-1.2h9.6v4.1
					c1.5-1.7,2.9-3,4.1-3.7C19.6-182.8,20.9-183.2,22.2-183.2z"/>
			</g>
		</g>
	</g>
	<g>
		<g transform="translate(160.761167, 202.648359)">
			<g>
				<path class="st0" d="M23.2-183.2c1,0,1.9,0.1,2.6,0.3c0.8,0.2,1.6,0.5,2.4,0.9H37v3.3h-4.8c1.5,1.9,2.2,4,2.2,6.2
					c0,1.5-0.4,3.1-1.1,4.7s-2,3-3.7,4.2c-1.7,1.2-3.9,1.7-6.6,1.7c-0.4,0-0.8,0-1.1-0.1c-0.4,0-0.7-0.1-1-0.1c-0.9,0-1.6,0.3-2.3,1
					c-0.6,0.6-0.9,1.4-0.9,2.3c0,1.1,0.4,1.8,1.2,2.2c0.8,0.3,2.3,0.5,4.4,0.5c3.3,0.1,5.8,0.3,7.6,0.5c1.8,0.2,3.2,0.9,4.4,1.9
					c1.2,1,1.8,2.7,1.8,4.9c0,2.9-1.2,5.2-3.5,6.9c-2.3,1.7-5.5,2.5-9.5,2.5c-3.7,0-6.7-0.5-9-1.6c-2.3-1-3.5-2.4-3.5-4.1
					c0-1.2,0.5-2.2,1.4-3c0.9-0.8,2.3-1.2,4-1.4l0.1-0.1c-1.4-0.5-2.5-1.2-3.2-2.1c-0.7-0.9-1.1-2-1.1-3.2c0-1.6,0.5-3,1.6-4.4
					c1.1-1.4,2.5-2.5,4.4-3.3c-2.2-0.9-4-2.1-5.2-3.8c-1.2-1.7-1.9-3.7-1.9-5.9c0-2,0.5-3.8,1.5-5.5c1-1.7,2.4-2.9,4.2-3.9
					C19-182.7,21-183.2,23.2-183.2z M19.8-172.7c0,3.4,0.2,5.7,0.7,7c0.5,1.3,1.4,1.9,2.7,1.9c1.2,0,2.1-0.7,2.6-2
					c0.5-1.3,0.8-3.6,0.8-6.6c0-2.3-0.1-4-0.3-5.3c-0.2-1.2-0.6-2.1-1-2.6c-0.5-0.5-1.1-0.8-2-0.8c-1.3,0-2.2,0.7-2.7,2.1
					C20.1-177.7,19.8-175.5,19.8-172.7z M16.4-145.7c0,1.3,0.7,2.3,2,3.1c1.3,0.7,3.2,1.1,5.5,1.1c2.7,0,4.8-0.4,6.3-1.1
					c1.6-0.7,2.4-1.7,2.4-3.1c0-0.9-0.2-1.6-0.8-2c-0.5-0.4-1.3-0.8-2.4-1c-1.1-0.2-2.8-0.3-5-0.3c-2.5,0-4.5,0.2-5.9,0.6
					C17.1-148,16.4-147.1,16.4-145.7z"/>
			</g>
		</g>
	</g>
	<g>
		<g transform="translate(186.98463, 202.648359)">
			<g>
				<path class="st0" d="M48.7-169.1h0.1v-22.3c0-1.4-0.3-2.4-0.9-3.1c-0.6-0.6-1.6-1-3.1-1v-1.2h10.4v1.2c-1.4,0-2.4,0.3-3,0.9
					c-0.6,0.5-0.8,1.5-0.8,3v39.4h-1.1l-24-35H26v28.9c0,1.6,0.3,2.7,1,3.4c0.6,0.7,1.8,1,3.3,1v1.2h-11v-1.2h0.5
					c1.3,0,2.3-0.3,2.9-0.8c0.6-0.6,1-1.6,1-3.2v-32.9l-2.8-3.7c-0.1-0.2-0.4-0.4-0.7-0.6c-0.3-0.2-0.6-0.3-0.9-0.3v-1.2h10.5
					L48.7-169.1z"/>
			</g>
		</g>
	</g>
	<g>
		<g transform="translate(213.353261, 202.648359)">
			<g>
				<path class="st0" d="M40.6-183.2c3.2,0,5.8,1.3,7.6,4c1.9,2.7,2.8,6,2.8,10v0.5H36.9c0.1,3.6,0.8,6.5,2.1,8.7
					c1.3,2.2,3,3.3,5.1,3.3c1.2,0,2.3-0.4,3.2-1.2c0.9-0.8,1.8-2.1,2.6-3.7l1,0.6c-0.8,2.9-2.1,5.2-4,6.7c-1.9,1.6-4.1,2.3-6.6,2.3
					c-2.2,0-4.2-0.7-6-2c-1.8-1.3-3.1-3.1-4.1-5.5c-1-2.3-1.5-5-1.5-7.9c0-3,0.5-5.6,1.6-8.1c1.1-2.4,2.5-4.3,4.3-5.7
					C36.3-182.5,38.3-183.2,40.6-183.2z M43.5-172.1c0-3.1-0.2-5.4-0.6-6.8c-0.4-1.4-1.2-2.2-2.4-2.2c-1.2,0-2.1,0.8-2.7,2.3
					c-0.6,1.5-0.9,4.2-0.9,8h6.7V-172.1z"/>
			</g>
		</g>
	</g>
	<g>
		<g transform="translate(230.176911, 202.648359)">
			<g>
				<path class="st0" d="M45.9-181.3c-0.9,0.1-1.6,0.3-2,0.6c-0.4,0.2-0.6,0.7-0.6,1.3c0,0.7,0.2,1.8,0.7,3.3l3.3,11.1h0.1l3.4-11.8
					c-0.4-1.7-0.8-2.8-1.1-3.4c-0.3-0.6-0.9-1-1.7-1.1v-1.2h12.5v1.2c-0.9,0.1-1.5,0.3-1.9,0.6c-0.4,0.3-0.6,0.8-0.6,1.5
					c0,0.4,0.2,1.4,0.6,2.8l0.4,1.7l2.5,9.3h0.1l2.7-9.2c0.1-0.2,0.2-0.8,0.5-1.7c0.3-0.9,0.4-1.8,0.4-2.5c0-0.6-0.2-1.2-0.5-1.5
					c-0.3-0.4-0.9-0.7-1.7-0.9v-1.2h6.6v1.2c-0.7,0.4-1.2,1-1.6,1.7c-0.4,0.8-0.9,2.3-1.6,4.6l-6.9,23.7h-1.5l-6.1-22h-0.1l-6.4,22
					h-1.5l-8.2-27.1c-0.2-0.9-0.5-1.6-0.8-2c-0.3-0.5-0.7-0.8-1.2-0.9v-1.2h12.2V-181.3z"/>
			</g>
		</g>
	</g>
	<g>
		<g transform="translate(256.545532, 202.648359)">
			<g>
				<path class="st0" d="M50.7-183.2c0.9,0,1.8,0.1,2.4,0.3c0.7,0.2,1.4,0.4,2.3,0.8c0.9,0.4,1.6,0.6,2.2,0.6c0.7,0,1.2-0.6,1.5-1.7
					h1.2v10h-1.1c-0.5-2.2-1.5-4.1-2.9-5.6c-1.4-1.5-3-2.3-4.8-2.3c-1.1,0-2,0.3-2.6,0.8c-0.7,0.5-1,1.3-1,2.3
					c0,1.3,0.4,2.3,1.2,3.1c0.8,0.8,1.8,1.5,2.9,2.2c1.1,0.6,1.9,1.1,2.2,1.3c2,1.2,3.5,2.2,4.6,3c1,0.8,1.8,1.7,2.4,2.9
					c0.6,1.1,0.9,2.5,0.9,4.1c0,1.8-0.4,3.4-1.2,4.8c-0.8,1.4-1.9,2.6-3.4,3.4c-1.4,0.8-3,1.2-4.7,1.2c-1.8,0-3.7-0.5-5.6-1.4
					c-0.8-0.3-1.3-0.5-1.6-0.5c-0.3,0-0.7,0.1-0.9,0.4c-0.3,0.3-0.4,0.8-0.4,1.4h-1.2l-0.2-10.5H44c1.1,2.9,2.5,5,4,6.3
					c1.6,1.3,3.1,1.9,4.6,1.9c1.1,0,1.9-0.3,2.6-1c0.7-0.7,1-1.6,1-2.6c0-1.3-0.5-2.4-1.4-3.2c-0.9-0.8-2.3-1.8-4.1-2.8l-2.5-1.5
					c-1.3-0.9-2.4-1.6-3.1-2.3c-0.8-0.7-1.4-1.5-1.9-2.5c-0.5-1-0.8-2.3-0.8-3.8c0-2.6,0.8-4.7,2.3-6.5
					C46.5-182.4,48.4-183.2,50.7-183.2z"/>
			</g>
		</g>
	</g>
	<g>
		<g transform="translate(277.755464, 202.648359)">
			<g>
				<path class="st0" d="M62.1-197.4c3.2,0,5.8,1.1,7.8,3.2c2,2.1,3,4.9,3,8.3c0,2.5-0.4,4.9-1.3,7.2c-0.9,2.3-2.4,4.9-4.5,7.8
					c-2.2,2.9-5.2,6.3-9.1,10.1h9.1c1.7,0,3-0.4,3.8-1.1c0.8-0.8,1.5-2,2.1-3.6h1.2l-1.9,12.7H49.2v-1l5.1-6.2
					c3.3-4.1,5.8-7.8,7.4-11c1.6-3.2,2.4-6.4,2.4-9.6c0-2.8-0.6-5.1-1.8-6.7c-1.2-1.7-2.8-2.5-4.8-2.5c-1.5,0-2.7,0.5-3.9,1.5
					c-1.1,1-1.9,2.3-2.3,3.9l-1.2-0.4c0.7-3.9,2.2-6.9,4.3-9.1C56.5-196.3,59.1-197.4,62.1-197.4z"/>
			</g>
		</g>
	</g>
	<g>
		<g transform="translate(297.085884, 202.648359)">
			<g>
				<path class="st0" d="M78.2-197.4v28.3h4.1v6.6h-4.1v9.6h-8.7v-9.6H56v-6.6l18.6-28.3H78.2z M58.8-169.1h10.8v-16.5h-0.1
					L58.8-169.1z"/>
			</g>
		</g>
	</g>
	<g>
		<g transform="translate(316.416305, 202.648359)">
			<g>
				<path class="st0" d="M79.7-195.5h-0.5c-2.5,0-3.7,1.3-3.7,4v14.7h12.9v-14.5c0-1.5-0.3-2.5-0.8-3.1c-0.6-0.6-1.5-0.9-2.8-1h-0.6
					v-1.2h17.2v1.2h-0.6c-1.2,0.1-2,0.4-2.6,1.1c-0.6,0.6-0.9,1.6-0.9,2.9v33.2c0,1.6,0.3,2.8,0.9,3.4c0.6,0.6,1.6,1,2.9,1h0.3v1.2
					H84.3v-1.2h0.4c1.3,0,2.3-0.3,2.9-1c0.6-0.6,0.9-1.8,0.9-3.4V-174H75.6v15.8c0,1.5,0.3,2.5,0.9,3.2c0.6,0.7,1.5,1,2.8,1h0.5v1.2
					H62.5v-1.2h0.6c1.3,0,2.2-0.4,2.7-1c0.5-0.6,0.8-1.6,0.8-3v-33.5c0-1.4-0.3-2.4-0.9-3c-0.6-0.7-1.6-1-2.9-1h-0.3v-1.2h17.2
					V-195.5z"/>
			</g>
		</g>
	</g>
</g>
</svg>
